<!-- <svg xmlns="http://www.w3.org/2000/svg" width="311.983" height="311.929" viewBox="0 0 311.983 311.929">
  <g id="Icon_ionic-ios-apps" data-name="Icon ionic-ios-apps" transform="translate(-4.494 -4.496)">
    <path id="Path_9" data-name="Path 9" d="M305.678,64.318,184.327,9a65.721,65.721,0,0,0-47.842,0L15.22,64.318c-14.293,6.5-14.293,17.117,0,23.639l120.221,54.826a69.059,69.059,0,0,0,50.033,0L305.687,87.956C319.971,81.46,319.971,70.822,305.678,64.318Z" transform="translate(0.07 0)" fill="#b5c8ff"/>
    <g id="Group_1" data-name="Group 1" transform="translate(4.493 135.941)">
      <path id="Path_10" data-name="Path 10" d="M135.441,61.195,54.375,24.239a13.18,13.18,0,0,0-10.8,0L15.22,37.154C.927,43.65.927,54.271,15.22,60.792l120.221,54.826a69.058,69.058,0,0,0,50.033,0L305.687,60.792c14.293-6.5,14.293-17.117,0-23.639L277.341,24.239a13.18,13.18,0,0,0-10.8,0L185.474,61.195A69.058,69.058,0,0,1,135.441,61.195Z" transform="translate(-4.423 60.176)" fill="#fff"/>
      <path id="Path_11" data-name="Path 11" d="M305.757,28.732,280,17.033a12.992,12.992,0,0,0-10.724,0l-87.724,39.72a71.712,71.712,0,0,1-42.159,0L51.681,17.033a12.992,12.992,0,0,0-10.724,0l-25.744,11.7C.92,35.228.92,45.849,15.213,52.371L135.426,107.2a69.058,69.058,0,0,0,50.033,0L305.671,52.371C320.049,45.866,320.049,35.228,305.757,28.732Z" transform="translate(-4.493 -15.875)" fill="#fff"/>
    </g>
  </g>
</svg> -->

<svg version="1.0" xmlns="http://www.w3.org/2000/svg"
 width="355.000000pt" height="359.000000pt" viewBox="0 0 355.000000 359.000000"
 preserveAspectRatio="xMidYMid meet">

<g transform="translate(0.000000,359.000000) scale(0.100000,-0.100000)"
fill="#8D33FF"  stroke="#fff">
<path d="M1420 3441 c0 -77 4 -132 10 -136 6 -3 19 -3 30 0 16 5 20 15 20 55
0 45 3 50 25 56 14 3 36 3 50 0 22 -6 25 -11 25 -56 0 -47 2 -50 25 -50 l25 0
0 131 0 130 -27 -3 c-24 -3 -28 -8 -29 -38 -3 -70 0 -67 -51 -66 l-48 1 -3 53
c-3 48 -5 52 -28 52 l-24 0 0 -129z"/>
<path d="M1204 3532 c-6 -4 -21 -59 -33 -122 -12 -63 -25 -123 -28 -133 -4
-15 0 -18 23 -15 22 2 30 10 36 34 6 25 15 33 39 38 57 11 75 7 87 -20 10 -20
17 -24 35 -18 12 3 24 8 25 9 7 6 -82 147 -95 152 -7 3 -12 10 -11 17 1 6 -6
23 -16 39 -18 27 -40 34 -62 19z m61 -111 c16 -32 12 -41 -22 -41 -24 0 -28
14 -17 57 7 27 19 22 39 -16z"/>
<path d="M1836 3519 c-29 -23 -35 -63 -12 -94 7 -10 33 -28 57 -40 53 -25 66
-60 25 -71 -29 -7 -76 18 -76 40 0 17 -23 27 -39 17 -18 -12 -3 -58 26 -81 18
-14 41 -20 79 -20 47 0 55 3 75 31 33 47 18 86 -51 124 -61 34 -78 65 -37 65
35 0 57 -10 57 -25 0 -13 21 -25 46 -25 38 0 -2 73 -48 89 -46 16 -72 13 -102
-10z"/>
<path d="M981 3479 c-23 -9 -23 -12 -17 -89 3 -44 2 -80 -2 -80 -4 1 -25 30
-47 65 -42 68 -48 72 -90 53 -19 -9 -24 -16 -19 -32 16 -55 67 -212 70 -218 2
-3 13 -4 25 -1 23 6 22 16 -5 106 -19 60 -9 54 40 -23 24 -38 43 -59 52 -55 7
3 18 5 24 5 6 0 8 30 6 75 -2 41 -1 75 2 75 3 0 14 -26 26 -57 15 -44 26 -59
42 -61 30 -5 29 8 -14 138 -38 116 -41 120 -93 99z"/>
<path d="M2131 3423 c-18 -21 -35 -42 -39 -48 -4 -5 -26 -32 -49 -59 -24 -27
-43 -55 -43 -62 0 -21 41 -17 65 6 20 19 23 19 68 4 40 -14 46 -19 49 -47 2
-27 8 -33 30 -35 l28 -3 -5 58 c-3 32 -7 92 -11 135 -5 67 -8 77 -27 82 -33 9
-33 9 -66 -31z m46 -107 c-5 -12 -12 -13 -29 -7 -31 11 -32 23 -6 56 l23 29 9
-31 c5 -18 6 -39 3 -47z"/>
<path d="M2356 3343 c-9 -21 -34 -72 -56 -113 -36 -69 -38 -76 -23 -87 24 -19
29 -17 51 21 19 32 57 53 67 36 2 -4 5 -30 6 -58 2 -58 5 -64 36 -81 33 -17
35 -14 29 27 -3 20 -8 60 -11 89 l-7 51 61 23 c34 12 61 25 61 29 0 5 -13 13
-30 18 -24 9 -40 6 -91 -14 -34 -14 -63 -24 -65 -22 -1 2 6 24 17 48 19 42 19
45 3 57 -26 19 -30 17 -48 -24z"/>
<path d="M671 3351 c-11 -7 -4 -26 34 -95 26 -48 44 -93 41 -101 -7 -19 -51
-36 -70 -29 -14 5 -86 117 -86 133 0 5 -7 14 -16 21 -12 11 -18 10 -31 -3 -14
-14 -14 -19 -2 -44 44 -85 85 -146 105 -155 56 -26 154 31 154 89 -1 35 -80
187 -100 190 -8 2 -21 -1 -29 -6z"/>
<path d="M2561 3133 c-39 -54 -71 -103 -71 -110 0 -6 9 -15 21 -18 23 -8 20
-11 105 112 47 69 55 85 44 98 -7 8 -16 15 -20 15 -5 0 -40 -44 -79 -97z"/>
<path d="M405 3178 c-37 -20 -115 -82 -115 -91 0 -6 77 -110 136 -183 14 -18
29 -18 44 1 12 15 11 19 -35 81 -6 9 -6 17 2 25 9 9 28 7 81 -6 64 -17 71 -17
86 -2 17 16 21 37 9 37 -5 1 -30 7 -58 14 -49 13 -50 14 -47 49 3 28 -2 42
-22 62 -27 27 -50 31 -81 13z m50 -72 c0 -28 -51 -63 -73 -50 -25 16 -21 32
13 54 36 23 60 21 60 -4z"/>
<path d="M2713 3163 c-19 -7 -16 -27 7 -48 11 -10 20 -22 20 -27 0 -5 -28 -43
-61 -84 -52 -62 -60 -76 -49 -89 7 -8 18 -15 24 -14 6 0 39 34 74 75 l64 74
29 -21 c16 -11 33 -17 39 -14 23 14 6 43 -53 89 -80 64 -80 64 -94 59z"/>
<path d="M1315 3154 c-102 -20 -142 -30 -219 -56 -302 -99 -701 -394 -911
-673 -97 -128 -151 -274 -142 -379 10 -115 50 -205 109 -249 26 -20 30 -20 61
-5 18 9 58 38 88 66 64 59 80 97 104 262 44 287 198 580 376 714 165 124 357
174 634 163 146 -6 187 -14 370 -73 108 -35 363 -154 459 -215 160 -99 360
-282 469 -428 63 -84 154 -255 186 -350 87 -256 94 -553 19 -775 -27 -82 -91
-219 -131 -281 -134 -211 -351 -414 -614 -573 -112 -68 -317 -173 -375 -192
-21 -6 -38 -14 -38 -17 0 -15 189 44 319 100 211 90 377 203 538 365 210 211
345 435 408 678 65 252 71 514 15 739 -26 105 -91 266 -103 258 -6 -3 -7 -1
-4 4 8 13 -42 107 -110 204 -162 233 -416 444 -698 580 -155 74 -221 95 -379
119 -117 18 -368 26 -431 14z"/>
<path d="M2974 2906 c-3 -8 2 -27 12 -41 18 -27 18 -27 -17 -56 -19 -16 -53
-44 -76 -62 -46 -35 -51 -48 -28 -67 17 -14 15 -15 106 62 31 27 61 48 66 48
6 0 18 -9 28 -20 20 -22 40 -26 50 -10 7 12 -105 159 -123 160 -7 0 -15 -6
-18 -14z"/>
<path d="M1170 2895 c-306 -63 -524 -310 -570 -646 -10 -74 -7 -200 6 -275 10
-53 57 -202 75 -237 60 -117 17 -250 -124 -387 -52 -50 -57 -58 -57 -97 0 -83
64 -186 123 -198 237 -48 483 -118 606 -171 191 -83 362 -191 406 -255 29 -42
30 -49 30 -149 0 -98 -2 -110 -33 -174 -18 -38 -48 -91 -67 -118 -19 -26 -35
-59 -35 -72 l0 -24 51 16 c32 10 64 30 87 55 25 26 93 67 212 128 233 119 244
125 370 208 217 142 279 233 221 327 l-19 30 58 12 c33 7 75 25 99 43 82 58
131 219 132 423 0 92 -4 126 -25 191 -84 265 -295 352 -618 254 -62 -19 -147
-72 -174 -109 -7 -8 -21 -26 -33 -39 -30 -35 -26 -36 22 -3 70 48 159 97 211
116 74 28 255 18 348 -19 139 -56 208 -167 221 -360 5 -67 -7 -194 -25 -268
-19 -75 -105 -145 -218 -178 -25 -7 -51 -17 -57 -22 -18 -13 -16 -42 2 -61 25
-24 44 -79 35 -101 -7 -18 -65 -76 -131 -130 -13 -12 -51 -39 -84 -60 -33 -22
-62 -42 -65 -45 -5 -6 -84 -54 -215 -132 -87 -51 -244 -123 -252 -114 -2 2 10
25 26 51 80 126 61 281 -49 393 -134 139 -469 280 -845 357 -198 40 -265 82
-265 165 0 42 13 64 76 132 63 69 99 141 115 232 17 100 5 181 -52 350 -44
130 -50 158 -48 219 3 84 19 158 65 297 42 125 76 182 152 251 101 93 229 138
408 146 229 10 403 -48 533 -178 44 -44 80 -108 81 -141 0 -15 -10 -18 -67
-18 -74 0 -204 -19 -297 -44 -63 -17 -201 -83 -247 -119 -88 -68 -230 -356
-217 -440 3 -18 8 -13 29 28 15 28 34 73 44 100 19 51 45 94 56 95 4 0 12 -30
19 -67 21 -115 38 -144 169 -286 97 -105 219 -164 299 -146 43 9 107 71 173
166 111 161 137 275 90 398 -16 40 -25 90 -29 149 l-5 89 33 27 33 27 -17 43
c-41 104 -144 223 -244 284 -141 85 -354 117 -532 81z m630 -455 l38 0 1 -47
c0 -27 15 -97 32 -158 38 -132 45 -191 28 -242 -24 -74 -95 -187 -156 -250
-59 -59 -65 -63 -108 -63 -25 0 -60 7 -78 16 -92 48 -251 204 -283 280 -11 26
-19 78 -22 152 l-5 113 29 30 c97 102 332 191 458 173 16 -2 46 -4 66 -4z"/>
<path d="M3055 2650 c-49 -33 -93 -60 -97 -60 -16 0 -7 -29 25 -81 53 -89 64
-102 81 -96 22 9 20 27 -8 68 -37 55 -43 86 -16 94 25 8 42 -5 71 -51 11 -19
27 -34 35 -34 28 0 26 30 -5 72 -36 49 -37 54 -11 68 17 9 24 4 56 -44 31 -47
39 -54 55 -45 11 5 19 13 18 17 -1 13 -94 145 -104 148 -5 2 -50 -23 -100 -56z"/>
<path d="M3177 2421 c-53 -27 -100 -51 -103 -54 -7 -7 66 -167 75 -167 3 0 13
5 21 10 12 8 11 15 -8 55 -12 25 -22 52 -22 60 0 9 35 32 88 56 48 23 88 42
89 43 1 1 0 12 -4 24 -8 31 -24 27 -136 -27z"/>
<path d="M3150 2174 c0 -30 13 -42 45 -46 27 -3 31 -8 42 -52 12 -46 11 -50
-11 -67 -17 -13 -22 -25 -19 -44 3 -14 8 -25 12 -25 4 0 55 38 113 85 108 86
114 95 86 131 -4 6 -52 14 -106 17 -55 4 -113 10 -131 13 -26 5 -31 3 -31 -12z
m187 -79 c-29 -26 -47 -32 -47 -16 0 5 -3 16 -6 25 -5 13 2 16 37 16 l44 -1
-28 -24z"/>
<path d="M3304 1926 c-72 -31 -95 -115 -54 -195 20 -41 37 -52 67 -46 73 15
70 13 66 47 -8 66 -13 78 -33 78 -15 0 -20 -7 -20 -29 0 -42 -26 -47 -46 -10
-20 41 -11 75 26 94 46 24 95 20 119 -11 25 -31 27 -57 6 -74 -17 -14 -19 -38
-5 -60 7 -12 13 -11 34 10 21 19 26 33 26 73 0 59 -23 101 -66 122 -39 18 -79
19 -120 1z"/>
<path d="M2133 1685 c-119 -26 -230 -108 -276 -203 -33 -71 -31 -189 5 -258
45 -85 133 -149 251 -180 103 -27 211 -13 318 43 79 41 118 79 158 157 58 109
36 253 -52 338 -68 67 -210 120 -312 117 -16 0 -58 -7 -92 -14z m222 -47 c85
-21 180 -100 211 -174 23 -56 18 -142 -13 -204 -33 -66 -70 -101 -148 -140
-56 -28 -165 -51 -210 -46 -112 14 -176 39 -236 93 -118 106 -118 268 -1 380
98 94 247 128 397 91z"/>
<path d="M3247 1630 c-5 -20 5 -32 36 -43 13 -5 17 -18 17 -58 0 -47 -2 -52
-30 -62 -23 -9 -30 -17 -30 -39 0 -15 3 -28 8 -28 4 1 61 22 127 48 114 45
120 49 123 77 2 29 0 31 -115 78 -65 26 -121 47 -124 47 -4 0 -9 -9 -12 -20z
m166 -97 c12 -7 -31 -32 -55 -33 -12 0 -18 8 -18 23 0 13 3 26 6 30 6 5 45 -6
67 -20z"/>
<path d="M1654 1449 c-22 -17 -56 -40 -77 -51 -44 -22 -171 -56 -223 -60 -20
-1 -37 -6 -40 -10 -10 -16 66 -85 108 -97 120 -36 228 -114 319 -229 34 -42
64 -79 67 -82 13 -13 -10 104 -28 140 -50 99 -136 160 -259 185 -107 21 -130
37 -69 51 48 10 183 105 232 162 27 31 16 27 -30 -9z"/>
<path d="M3196 1205 c-21 -87 -16 -118 20 -142 22 -14 31 -15 61 -4 29 11 36
11 46 -2 21 -26 52 -29 79 -8 24 20 65 136 56 162 -4 12 -135 54 -203 64 l-41
7 -18 -77z m114 -2 c2 -2 -2 -23 -10 -46 -11 -30 -21 -43 -38 -45 -29 -4 -36
16 -22 67 10 38 13 41 38 35 15 -4 29 -9 32 -11z m98 -28 c2 -2 -2 -22 -8 -45
-9 -34 -15 -41 -33 -38 -23 3 -25 19 -12 76 5 19 10 22 28 16 12 -3 23 -8 25
-9z"/>
<path d="M3142 994 c-49 -34 -69 -125 -34 -157 19 -18 164 -87 181 -87 6 0 15
9 21 20 10 18 3 24 -80 61 -80 37 -90 45 -90 68 0 59 33 64 130 21 78 -34 95
-37 104 -13 9 23 -8 36 -98 72 -90 35 -103 37 -134 15z"/>
<path d="M3021 773 c-8 -15 1 -25 57 -60 l67 -43 -94 0 c-78 0 -96 -3 -107
-17 -7 -10 -14 -21 -14 -24 0 -4 30 -26 68 -49 37 -24 83 -54 103 -67 43 -28
46 -28 59 -4 9 17 2 24 -50 56 -33 20 -60 41 -60 46 0 5 40 9 88 9 85 0 112 8
112 34 -1 12 -191 136 -208 136 -6 0 -15 -8 -21 -17z"/>
<path d="M2841 517 c-62 -81 -55 -139 23 -192 50 -34 86 -41 123 -22 29 16
103 90 103 105 0 4 -24 26 -53 49 -29 23 -68 58 -87 78 -19 19 -41 35 -51 35
-9 0 -35 -24 -58 -53z m124 -68 c54 -50 55 -52 38 -71 -32 -36 -61 -41 -99
-17 -47 29 -58 52 -44 94 10 30 21 42 42 44 3 1 32 -22 63 -50z"/>
<path d="M2713 385 c-17 -12 -21 -22 -17 -48 5 -26 0 -37 -23 -59 -27 -26 -31
-27 -61 -16 -27 11 -34 10 -49 -5 -17 -17 -17 -19 6 -36 13 -10 68 -40 122
-67 l99 -48 20 20 21 20 -42 120 c-23 65 -44 122 -48 126 -4 4 -16 1 -28 -7z
m36 -157 c14 -39 9 -44 -29 -28 -35 14 -36 17 -13 42 22 25 29 23 42 -14z"/>
</g>
</svg>

